<svg xmlns="http://www.w3.org/2000/svg" xmlns:xlink="http://www.w3.org/1999/xlink" width="416" zoomAndPan="magnify" viewBox="0 0 312 82.499998" height="110" preserveAspectRatio="xMidYMid meet" version="1.0"><defs><clipPath id="a8c5394247"><path d="M 0.941406 0 L 311.058594 0 L 311.058594 82.003906 L 0.941406 82.003906 Z M 0.941406 0 " clip-rule="nonzero"/></clipPath></defs><g clip-path="url(#a8c5394247)"><path stroke-linecap="butt" transform="matrix(0.625541, 0, 0, 0.625541, 2.944099, 26.014074)" fill="none" stroke-linejoin="miter" d="M 27.996462 82.999397 L 60.093682 82.999397 C 95.238265 82.999397 95.238265 28.921201 60.093682 28.921201 L 54.148827 28.921201 L 54.523503 -10.43224 C 54.523503 -25.113283 42.52139 -37.284 27.465671 -37.284 C 12.616023 -37.284 0.607666 -25.113283 0.607666 -10.43224 L 0.607666 55.610602 C 0.114343 71.159644 12.285059 82.999397 27.996462 82.999397 Z M 116.675961 82.837038 C 132.062644 82.837038 143.902397 70.503962 143.902397 55.816673 L 143.902397 -10.101276 C 143.902397 -24.788564 132.062644 -36.622073 116.675961 -36.622073 C 101.826313 -36.622073 89.98656 -24.788564 89.98656 -10.101276 L 89.98656 55.816673 C 89.98656 70.503962 101.826313 82.837038 116.675961 82.837038 Z M 256.579877 -10.43224 C 256.579877 -25.3256 244.246801 -37.12164 229.191081 -37.12164 L 192.560284 -37.12164 C 143.721304 -37.658676 136.127876 17.456124 169.211742 34.859811 C 173.626671 37.045419 178.534923 38.906309 183.237104 39.231028 C 184.598425 39.730595 184.267462 41.422881 182.90614 41.422881 C 174.987993 41.422881 166.201847 39.231028 159.60131 34.859811 C 152.176486 40.267631 148.960519 47.030527 148.960519 56.147637 C 148.960519 68.149749 161.455955 83.168001 175.81228 83.168001 L 212.811507 83.168001 C 266.396381 83.168001 270.274274 16.919088 225.144583 6.646729 C 223.783262 6.272053 224.320297 4.417408 225.644151 4.417408 C 232.407048 4.954444 239.007585 6.646729 244.577764 9.825228 C 252.539623 5.77873 256.579877 -1.646094 256.579877 -10.43224 Z M 341.050519 -36.953036 L 287.834077 -36.953036 C 272.778357 -36.953036 261.144676 -24.61996 261.144676 -9.770312 C 261.144676 4.586012 272.778357 16.919088 287.834077 16.919088 L 287.834077 56.309996 C 287.834077 71.328248 300.004793 83.661324 314.523478 83.661324 C 329.373125 83.661324 341.749914 71.328248 341.749914 56.309996 L 341.543842 16.919088 C 356.599561 16.919088 368.27071 4.586012 368.27071 -9.770312 C 368.27071 -24.61996 356.106238 -36.953036 341.050519 -36.953036 Z M 385.468326 80.813789 C 398.838005 87.03965 414.718011 81.475716 421.149944 68.149749 L 426.183088 57.134283 L 421.649512 38.244382 C 421.480908 37.045419 422.636158 36.88306 423.010834 37.544987 L 437.529518 68.149749 C 443.75538 81.475716 459.635386 87.03965 473.005065 80.813789 C 486.368499 74.544215 491.938678 58.495605 485.669104 45.506846 L 453.409524 -22.434352 C 443.59302 -43.060251 414.387047 -42.691819 404.732903 -22.271992 L 372.804287 45.506846 C 366.578425 58.495605 372.148604 74.544215 385.468326 80.813789 Z M 385.468326 80.813789 " stroke="#474747" stroke-width="6.336038" stroke-opacity="1" stroke-miterlimit="4"/></g></svg>